<svg width="44" height="44" viewBox="0 0 44 44" fill="none" xmlns="http://www.w3.org/2000/svg">
<rect width="44" height="44" rx="22" fill="#17BB00"/>
<g clip-path="url(#clip0_869_21556)">
<path d="M10.124 26.0215L15.2022 14.2961C15.3313 13.9976 15.5928 13.8051 15.883 13.7477L16.1048 18.6007C16.1104 18.7215 16.0767 18.8407 16.0083 18.9406L10.4054 27.1344C10.0965 26.8938 9.92818 26.4728 10.124 26.021V26.0215Z" fill="white" stroke="white" stroke-width="0.357384"/>
<path d="M16.5877 13.8879L18.5618 15.2066L16.0508 18.9837L15.8826 13.7478C16.1165 13.7014 16.3697 13.7423 16.5877 13.8879Z" fill="white" stroke="white" stroke-width="0.357384"/>
<path d="M18.5628 15.2067L10.406 27.1351C10.7536 27.4054 11.2788 27.4479 11.664 27.0501L21.333 17.0572L18.5622 15.2067H18.5628Z" fill="white" stroke="white" stroke-width="0.357384"/>
<path d="M33.8615 26.0219L28.7834 14.2965C28.6542 13.998 28.3927 13.8054 28.1025 13.748L27.8807 18.6011C27.8752 18.7219 27.9088 18.8411 27.9773 18.9409L33.5801 27.1347C33.8891 26.8942 34.0573 26.4732 33.8615 26.0213V26.0219Z" fill="white" stroke="white" stroke-width="0.357384"/>
<path d="M27.3999 13.8879L25.4258 15.2066L27.9367 18.9837L28.105 13.7478C27.871 13.7014 27.6178 13.7423 27.3999 13.8879Z" fill="white" stroke="white" stroke-width="0.357384"/>
<path d="M25.4256 15.2067L33.5818 27.1351C33.2343 27.4055 32.709 27.448 32.3239 27.0502L22.6548 17.0572L25.4256 15.2067Z" fill="white" stroke="white" stroke-width="0.357384"/>
<path d="M16.0918 19.0041C16.0814 19.1541 16.1007 19.307 16.1547 19.4521L21.0983 32.6517C21.2505 33.0589 21.6153 33.2625 21.9794 33.2625V20.8055L16.0918 19.0035V19.0041Z" fill="white" stroke="white" stroke-width="0.357384"/>
<path d="M21.979 20.8058V33.2628C22.3432 33.2628 22.7079 33.0592 22.8601 32.652L27.8037 19.4524C27.8583 19.3073 27.8776 19.1545 27.8666 19.0044L21.979 20.8064V20.8058Z" fill="white" stroke="white" stroke-width="0.357384"/>
<path d="M21.9799 10.7815C21.6836 10.7815 21.3873 10.9194 21.2003 11.1953L16.27 18.4837C16.1641 18.6404 16.105 18.8202 16.0918 19.0039L21.9793 20.8059V10.7815H21.9799Z" fill="white" stroke="white" stroke-width="0.357384"/>
<path d="M22.7586 11.1953C22.5721 10.9194 22.2758 10.7815 21.979 10.7815V20.8059L27.8666 19.0039C27.8533 18.8202 27.7943 18.6404 27.6884 18.4837L22.7581 11.1953H22.7586Z" fill="white" stroke="white" stroke-width="0.357384"/>
</g>
<defs>
<clipPath id="clip0_869_21556">
<rect width="24.38" height="23" fill="white" transform="translate(9.81006 10.5)"/>
</clipPath>
</defs>
</svg>
